<?xml version="1.0" encoding="UTF-8" standalone="no"?>
<!-- Created with Inkscape (http://www.inkscape.org/) -->

<svg
   width="120"
   height="120"
   viewBox="0 0 120 120"
   version="1.1"
   id="svg1"
   xmlns="http://www.w3.org/2000/svg"
   xmlns:svg="http://www.w3.org/2000/svg">
  <defs
     id="defs1" />
  <g
     id="layer1">
    <rect
       style="opacity:0.99;fill:none;stroke:#000000;stroke-width:2.95566"
       id="rect1"
       width="104.72762"
       height="97.318146"
       x="10.272381"
       y="7.6818533"
       ry="7.1730185" />
    <path
       style="fill:#000080;stroke:#000080;stroke-width:1px;stroke-linecap:butt;stroke-linejoin:miter;stroke-opacity:1"
       d="m 15,104 c 0,0 -4.666041,3.02465 2.143249,-4.246168 6.8093,-7.270822 9.9768,-41.829493 11.8093,-35.000002 9.99999,37.26871 8.32527,-25.418532 12.63982,-30.46736 4.31455,-5.048828 9.66358,62.141772 17.00063,70.16427"
       id="path1" />
    <path
       style="fill:#000080;stroke:#000080;stroke-width:1px;stroke-linecap:butt;stroke-linejoin:miter;stroke-opacity:1"
       d="m 110.48036,104 c 0,0 4.92194,3.02465 -1.88735,-4.24617 -6.80931,-7.27082 -9.976811,-41.82949 -11.809311,-35 -9.99999,37.26871 -8.32527,-25.41853 -12.63982,-30.46736 -4.31455,-5.04883 -9.66358,62.14177 -17.00063,70.16427"
       id="path1-3" />
    <path
       style="fill:#000080;stroke:#000080;stroke-width:1px;stroke-linecap:butt;stroke-linejoin:miter;stroke-opacity:1"
       d="m 53.592999,94.45074 c 5.36896,5.178718 3.66063,-89.0659295 7.25609,-75.000001 3.59546,14.06593 4.56262,64.52902 7.74391,70.000001 3.18776,5.482111 2.1436,5 2.1436,5"
       id="path2" />
    <path
       style="fill:#000080;stroke:#000080;stroke-width:1px;stroke-linecap:butt;stroke-linejoin:miter;stroke-opacity:1"
       d="m 54.592999,94.45074 4,10 h 9 l 3.1436,-10 z"
       id="path3" />
  </g>
</svg>
