<?xml version="1.0" encoding="UTF-8" standalone="no"?>
<!-- Created with Inkscape (http://www.inkscape.org/) -->

<svg
   width="120"
   height="120"
   viewBox="0 0 120 120"
   version="1.1"
   id="svg1"
   xmlns="http://www.w3.org/2000/svg"
   xmlns:svg="http://www.w3.org/2000/svg">
  <defs
     id="defs1" />
  <g
     id="layer1">
    <path
       style="fill:none;stroke:#000000;stroke-width:5;stroke-linecap:butt;stroke-linejoin:miter;stroke-dasharray:none;stroke-opacity:1"
       d="M 5,112.5 H 115"
       id="path1" />
    <path
       style="fill:none;stroke:#000000;stroke-width:5;stroke-linecap:butt;stroke-linejoin:miter;stroke-dasharray:none;stroke-opacity:1"
       d="M 7.5,114.73729 V 4.7372881"
       id="path1-2" />
    <rect
       style="fill:#000080;stroke-width:6.54151;stroke-dasharray:none"
       id="rect1-69"
       width="5.0000014"
       height="50"
       x="105"
       y="45"
       ry="0.85916227" />
    <rect
       style="fill:#000080;stroke-width:7.03508;stroke-dasharray:none"
       id="rect1-6"
       width="5.6177454"
       height="87.5"
       x="28.539421"
       y="12.5"
       ry="1.503534" />
    <rect
       style="fill:#000080;stroke-width:6.21313;stroke-dasharray:none"
       id="rect1-1"
       width="4.3817253"
       height="87.5"
       x="17.078848"
       y="17.5"
       ry="1.503534" />
    <path
       style="fill:#000080;stroke:#000080;stroke-width:1px;stroke-linecap:butt;stroke-linejoin:miter;stroke-opacity:1"
       d="m 10,110 c 3,-11 2,-18 6,-12 4,6 4,-4 12,-1 8,3 4,-7 15,0 11,7 15,-5 22,0 7,5 5,-2 14,1 9,3 10,-5 17,-1 7,4 12,-15.5 15,-1 3,14.5 3,15 3,15 z"
       id="path2" />
    <path
       style="fill:#800000;stroke:#000080;stroke-width:0.712632px;stroke-linecap:butt;stroke-linejoin:miter;stroke-opacity:1"
       d="m 11.284366,110.48581 c 2.962951,-5.65614 1.975301,-9.2555 5.925902,-6.17034 3.950602,3.08517 8.833308,-7.8503 12.146402,-0.51327 1.672389,3.7036 4.493186,5.51679 14.520157,-9.2e-4 9.084492,-4.99908 17.301998,-5.90041 21.728307,0 3.751536,5.00092 7.206964,6.64322 13.827106,0.51419 4.92443,-4.55911 9.8765,-2.57097 16.79005,-0.51419 6.91355,2.05677 11.85181,-7.97002 14.81476,-0.5142 C 114,110.7429 114,111 114,111 Z"
       id="path2-8" />
    <rect
       style="fill:#800000;stroke-width:6.35934;stroke-dasharray:none"
       id="rect1-6-7"
       width="5.8423033"
       height="68.75"
       x="47.07885"
       y="36.25"
       ry="2.9211516" />
    <rect
       style="fill:#800000;stroke-width:2.83924;stroke-dasharray:none"
       id="rect1-6-7-5"
       width="4.4260578"
       height="18.089153"
       x="80.573944"
       y="89.389664"
       ry="2.2130289" />
    <rect
       style="fill:#800000;stroke-width:5.16921;stroke-dasharray:none"
       id="rect1-6-7-5-9"
       width="6.8486929"
       height="38.75"
       x="56.575653"
       y="65.179771"
       ry="3.4243464" />
  </g>
</svg>
